PathFileType	4	(X/Y/Z)	Patient4_TMGait_0pt6_02_left_30.trc.trc
DataRate	CameraRate	NumFrames	NumMarkers	Units	OrigDataRate	OrigDataStartFrame	OrigNumFrames
80.924855491329	80.924855491329	6	33	mm	80.924855491329	89	       141
Frame#	Time	Sacral			L.Shoulder			Chest			R.Shoulder			Neck			R.ASIS			L.ASIS			R.Thigh.Superior			R.Thigh.Lateral			R.Thigh.Inferior			R.Patella			L.Thigh.Superior			L.Thigh.Lateral			L.Thigh.Inferior			L.Patella			L.Shank.Superior			L.Shank.Lateral			L.Shank.Inferior			R.Shank.Superior			R.Shank.Lateral			R.Shank.Inferior			R.Heel			R.Midfoot.Superior			R.Midfoot.Lateral			R.Toe			L.Heel			L.Midfoot.Lateral			L.Midfoot.Superior			L.Toe			L.Elbow			L.Wrist			R.Elbow			R.Wrist			
		X1	Y1	Z1	X2	Y2	Z2	X3	Y3	Z3	X4	Y4	Z4	X5	Y5	Z5	X6	Y6	Z6	X7	Y7	Z7	X8	Y8	Z8	X9	Y9	Z9	X10	Y10	Z10	X11	Y11	Z11	X12	Y12	Z12	X13	Y13	Z13	X14	Y14	Z14	X15	Y15	Z15	X16	Y16	Z16	X17	Y17	Z17	X18	Y18	Z18	X19	Y19	Z19	X20	Y20	Z20	X21	Y21	Z21	X22	Y22	Z22	X23	Y23	Z23	X24	Y24	Z24	X25	Y25	Z25	X26	Y26	Z26	X27	Y27	Z27	X28	Y28	Z28	X29	Y29	Z29	X30	Y30	Z30	X31	Y31	Z31	X32	Y32	Z32	X33	Y33	Z33	

89	37.747428571429	872.134560738146	1006.590551991432	485.152648792532	1053.529453546490	1423.742240468133	281.504142965230	1160.484183967799	1353.858685754755	439.067545956634	1087.844123178936	1439.257749004016	611.998560261011	1064.752935237714	1488.955187817509	429.265758250580	1102.869030693445	936.382694115696	589.595355896096	1074.823414965611	957.867506059602	316.890811602390	1162.698084420015	747.808623151802	559.632090738261	1096.563889468298	632.898364466878	623.351855176644	1178.206109877047	588.200023758602	541.372558497060	1191.813820014754	497.396541880966	549.701200352178	1091.782027464163	733.504757900457	330.509428366942	981.775241399842	633.868438189220	270.881267573014	1059.400812158322	537.049605492279	318.644286258854	1043.424908128994	455.568276218101	316.138146142120	976.144569681850	402.540676672338	313.530379879020	835.582254159589	354.828169449806	270.125956907433	828.465723753811	225.224141683957	326.623600472289	1162.741344979980	408.128504556502	560.276308402479	1094.402525033855	304.995671564973	625.572228457718	1137.161230677076	209.035069707124	565.518332661716	1006.312732416862	44.181365382886	541.264168762830	1176.794574539259	98.499646162381	577.602152420835	1089.227480380544	37.994320783318	616.479819613922	1297.585295818903	43.529075201210	606.454238637117	638.518731935524	150.324616254233	365.474378009410	700.792090099180	96.378348418936	295.827694163370	803.554919533682	114.752307531874	316.980287289679	888.976740290646	33.133923163794	314.285683338020	1003.385214114454	1072.824681248794	173.070399348876	1252.284305422909	1017.555623245100	163.896810707606	992.562083934423	1125.975882336069	769.970640603156	1058.273189334931	872.427648964399	754.506095971198	
90	37.759785714286	872.568279162627	1007.623416787321	488.419130940210	1052.678122596114	1424.972352724952	284.040010607288	1160.633898135038	1354.921762448276	440.913447051149	1088.950300957273	1440.137181662793	614.241134892722	1064.531632645233	1489.953148419434	431.838032021333	1103.533298423609	937.277166358190	591.901746062730	1074.396364827438	958.436089110787	319.170659557654	1161.478448472999	746.993413449440	563.104780559577	1093.227365164616	632.920248514589	625.616798373054	1174.486647994202	587.535029192522	543.707365890914	1186.793027398302	496.722204848287	551.538349556630	1096.420207150116	735.440428083826	332.876408304480	990.236376755228	633.458270460007	272.238596471406	1070.358985198725	538.014474214004	320.260837461083	1055.189151237421	455.347352364498	316.833970979074	985.991606213993	402.732111863427	314.056083033056	844.014304028957	359.728709836731	270.265322609333	832.800186485053	230.227738285112	325.960616910788	1157.278085936421	407.694158046953	561.789154424338	1088.380943045168	304.705507371006	626.635724470480	1130.586671613793	208.747336710853	566.208112374276	998.885879705106	44.227311691142	541.372723119031	1169.452352855240	98.348054219117	577.853960114318	1081.767043661872	37.924547230200	616.590199122235	1290.187187435299	43.068705729565	606.666161706214	640.930127583118	165.178676779016	364.247333512037	699.730535095544	106.955696563332	295.079675424667	803.341600405495	118.878923758255	316.159240663814	882.361863857065	31.539054212504	314.223000874085	999.632603615097	1074.248664693651	176.107258207882	1246.607941491574	1009.007708560858	166.732841486985	1000.286336913588	1125.314892571059	773.852655276856	1078.373232941864	875.768614605219	754.679993272574	
91	37.772142857143	872.744713787946	1008.497110436281	491.566736708837	1051.661010923119	1425.976750671029	286.419860994551	1160.643709039234	1355.736040401652	442.582441836876	1089.993171235770	1440.798379635129	616.331113971702	1064.181593612535	1490.755217423264	434.256817630494	1103.976098977688	937.960000959097	594.080550722115	1073.690120085710	958.781117877487	321.377874163527	1160.071164187436	746.191151516532	566.178603038946	1090.013568660495	632.979299923978	627.789952427023	1170.721842314610	586.886689029679	545.840948664388	1181.737820589720	496.046398580032	553.341006356123	1101.083860916788	737.547048592904	335.522697726654	999.146009765079	633.193533513500	273.637963471216	1081.614795563341	539.331689376230	322.302774708592	1067.376818938150	455.495538842190	318.078066543616	996.449926323474	403.147063496755	314.948289218083	853.320345752560	364.772203844663	270.526151229175	837.946621649249	235.585116752125	325.616869241060	1151.795564333730	407.235407730246	563.281766832865	1082.344056002225	304.403905346061	627.709191364101	1123.996569164229	208.439331885423	566.906756782685	991.426083065584	44.262206866399	541.500566867822	1162.091891502351	98.180568417892	578.114356837130	1074.277059499330	37.845188801943	616.721361810970	1282.760162347166	42.616802338816	606.866390777227	644.683764738203	180.521285879299	363.235944043972	699.794993831037	118.337684005543	294.432525165748	803.927877749121	123.737270479686	315.507432067029	876.211380610724	29.903286800677	313.997458790542	995.997691700136	1075.376078192094	179.032072363270	1240.407693137721	999.349127901526	169.473236614941	1008.138519375280	1124.633894192129	777.644099863202	1098.811588703218	879.953720257277	754.582890277168	
92	37.784500000000	872.657677132076	1009.214801585210	494.587241905802	1050.482170495743	1426.775238715350	288.639982880578	1160.498882794097	1356.312075657096	444.072255447516	1090.954955120288	1441.248067462410	618.270212954909	1063.727136089464	1491.379040264964	436.516144349433	1104.200551871327	938.468963455703	596.107621187241	1072.690616995046	958.940726975155	323.499398210370	1158.499879470128	745.438071173873	568.788256068855	1086.935738564266	633.076020123077	629.828060282027	1166.944753000247	586.259456805795	547.742196373821	1176.683224900307	495.376977852791	555.050102668085	1105.663275606257	739.879037381749	338.426653244488	1008.341051461404	633.171780157970	275.079439487584	1093.005588449154	541.084747923561	324.704198525108	1079.863370272197	456.093904404778	319.775998270834	1007.395583180977	403.857833583621	316.162911606047	863.349117251724	369.933435426250	270.955451286446	843.886240553581	241.227373327203	325.613650271086	1146.324720287360	406.765154954614	564.709736255598	1076.324908438963	304.112317932936	628.764182694421	1117.412263313111	208.126025718498	567.588583470310	983.952265542674	44.294146348509	541.648234565060	1154.726620919560	98.018094613257	578.378358449850	1066.777460019180	37.770826647387	616.872612366548	1275.319183147120	42.204618829941	607.059939169249	649.752436511005	195.924115927787	362.571165202232	701.089523992593	130.230874655783	293.953669504041	805.444861630231	129.264257080979	315.025704252706	870.843292245150	28.419579835383	313.539147674758	992.517593745820	1076.191156301958	181.905163204560	1233.577507966253	988.584234692527	172.118669359351	1016.185872422828	1123.878036177679	781.261179360970	1119.507353668332	884.979324560269	754.138267757412	
93	37.796857142857	872.313073462096	1009.797990972544	497.478385634509	1049.144364185236	1427.400617223037	290.703086008246	1160.190329345834	1356.682940101968	445.385725622635	1091.819020242770	1441.511633480292	620.062681064485	1063.191125773269	1491.853951074064	438.614786346613	1104.218778192337	938.846702925824	597.955492910384	1071.394906634451	958.966925727039	325.513153161674	1156.778665212866	744.746751616279	570.929025332926	1083.955266055593	633.200383147204	631.698020628336	1163.154958348147	585.649480922831	549.404153983095	1171.628390862124	494.719057857335	556.615126172213	1110.049933889360	742.485491971318	341.530290548406	1017.632194780617	633.482914695917	276.551959700278	1104.364489991679	543.345936427516	327.358781002452	1092.514059928735	457.219072287813	321.792415538220	1018.696362230404	404.934690828580	317.623571128495	873.928096886466	375.171042998741	271.592562341820	850.603317869884	247.050464834280	325.950084453733	1140.865940732875	406.295707025366	566.035323723478	1070.327104984539	303.845745869446	629.771834240782	1110.837667365753	207.821013968615	568.230916828844	976.476954448063	44.327679264785	541.813150342302	1147.363897764787	97.875063347931	578.639836254236	1059.281211746875	37.710333212187	617.039771825324	1267.873791272342	41.853009487252	607.250383499158	656.065410702477	210.870696553163	362.377107441105	703.707091678037	142.253221754966	293.705790062959	808.043316923434	135.327578538414	314.706439679625	866.672842062014	27.315027624132	312.776069590205	989.222331469597	1076.701254952141	184.782451916578	1226.000269398897	976.765084930936	174.676532563968	1024.482652646871	1123.018400985062	784.615342607767	1140.379069531898	890.848309209700	753.263544287449	
94	37.809214285714	871.726576559299	1010.282761206910	500.240763009826	1047.652042285507	1427.893158605334	292.616164494644	1159.717145090697	1356.896058822747	446.528997893864	1092.575840371957	1441.628343231921	621.713044579434	1062.594046621918	1492.216187483776	440.554956455603	1104.049146613007	939.135867239377	599.598461230618	1069.811603725050	958.921491079988	327.391288757633	1154.910204062222	744.112967668649	572.639496649201	1081.003048079290	633.338302814995	633.378325347115	1159.326011160017	585.048826873930	550.836222339013	1166.545536096052	494.076825539963	557.999562441452	1114.146540091004	745.404792001439	344.743271822675	1026.820177456299	634.199762598731	278.033825077349	1115.530997082086	546.169148965149	330.131773987836	1105.189025791286	458.936975004654	323.969664499162	1030.220605949211	406.437361636786	319.231618818507	884.878098469798	380.421952626226	272.463310635295	858.089003542590	252.914908173133	326.603275048443	1135.397227771459	405.838563275508	567.230970219064	1064.332213663423	303.613694680255	630.706890296518	1104.263671377268	207.535614807686	568.816155823891	969.006447224863	44.364533973619	541.990869789011	1140.005850363479	97.759412047336	578.892472489530	1051.794770958905	37.667502027033	617.216407957239	1260.428679953800	41.572149732733	607.439658048405	663.518045652408	224.788518912335	362.752251009654	707.727776274454	153.955077362888	293.736568785748	811.884924083227	141.731250799835	314.534659542721	864.193677888659	26.816576769697	311.643295384559	986.131557890709	1076.934340237703	187.710160506828	1217.554959943508	964.000373397535	177.161862165316	1033.064123314021	1122.052950415104	787.618822453320	1161.336478909022	897.569737828575	751.879186882623	
